<mxfile host="app.diagrams.net" modified="2022-11-07T15:42:01.536Z" agent="5.0 (Windows NT 10.0; Win64; x64) AppleWebKit/537.36 (KHTML, like Gecko) Chrome/107.0.0.0 Safari/537.36" etag="Qw2rkZfewjMP-f5XuaYH" version="20.5.3" type="github">
  <diagram id="WwB0yrFr8-9Pms-kcAjm" name="Page-1">
    <mxGraphModel dx="1422" dy="762" grid="1" gridSize="10" guides="1" tooltips="1" connect="1" arrows="1" fold="1" page="1" pageScale="1" pageWidth="827" pageHeight="1169" math="0" shadow="0">
      <root>
        <mxCell id="0" />
        <mxCell id="1" parent="0" />
        <mxCell id="X6OqjAZfzEXDJyi5xuqe-1" value="&lt;b&gt;&lt;i&gt;&lt;font color=&quot;#ff0000&quot; style=&quot;font-size: 17px;&quot;&gt;END&lt;/font&gt;&lt;/i&gt;&lt;/b&gt;" style="ellipse;whiteSpace=wrap;html=1;fillColor=#f8cecc;strokeColor=#b85450;strokeWidth=5;" vertex="1" parent="1">
          <mxGeometry x="376" y="690" width="75" height="50" as="geometry" />
        </mxCell>
        <mxCell id="X6OqjAZfzEXDJyi5xuqe-2" value="&lt;b&gt;&lt;i&gt;&lt;font color=&quot;#ff0000&quot; style=&quot;font-size: 17px;&quot;&gt;START&lt;/font&gt;&lt;/i&gt;&lt;/b&gt;" style="ellipse;whiteSpace=wrap;html=1;fillColor=#f8cecc;strokeColor=#b85450;strokeWidth=5;" vertex="1" parent="1">
          <mxGeometry x="376" y="100" width="75" height="50" as="geometry" />
        </mxCell>
        <mxCell id="X6OqjAZfzEXDJyi5xuqe-4" value="" style="endArrow=classic;html=1;rounded=0;fontSize=17;fontColor=#FF0000;strokeWidth=13;strokeColor=#FF0000;" edge="1" parent="1">
          <mxGeometry width="50" height="50" relative="1" as="geometry">
            <mxPoint x="410" y="170" as="sourcePoint" />
            <mxPoint x="410" y="670" as="targetPoint" />
          </mxGeometry>
        </mxCell>
      </root>
    </mxGraphModel>
  </diagram>
</mxfile>
